<svg fill="#1A1A1A" xmlns="http://www.w3.org/2000/svg"  viewBox="0 0 26 26" width="208px" height="208px"><path d="M 10.46875 0.0625 C 9.917969 0.140625 9.421875 0.492188 9.15625 1.03125 L 7.78125 4 L 11.59375 4 L 12.28125 2.5625 C 12.703125 1.699219 12.332031 0.636719 11.46875 0.21875 C 11.144531 0.0625 10.800781 0.015625 10.46875 0.0625 Z M 15.75 0.375 C 15.195313 0.441406 14.683594 0.78125 14.40625 1.3125 L 13.03125 4 C 15.25 4.09375 15.8125 5.90625 15.53125 6.75 L 17.46875 2.90625 C 17.910156 2.054688 17.601563 1 16.75 0.5625 C 16.429688 0.398438 16.082031 0.335938 15.75 0.375 Z M 19.84375 3.21875 C 19.289063 3.269531 18.757813 3.570313 18.46875 4.09375 L 15.8125 9.1875 C 15.351563 10.027344 15.65625 11.097656 16.5 11.5625 C 17.339844 12.023438 18.382813 11.71875 18.84375 10.875 L 21.53125 5.78125 C 21.996094 4.941406 21.6875 3.867188 20.84375 3.40625 C 20.527344 3.234375 20.175781 3.1875 19.84375 3.21875 Z M 6.75 5.03125 C 5.65625 5.03125 4.40625 5.890625 3.9375 7.59375 C 3.5625 8.953125 2.539063 12.660156 2.1875 13.875 C 1.800781 15.21875 2.101563 16.398438 2.65625 17.03125 C 2.976563 17.398438 4.054688 18.5 4.96875 19.40625 C 5.785156 20.214844 6 21.074219 6 22.375 L 6 26 L 19 26 L 19 23.96875 C 19 22.339844 20.199219 22.636719 20.9375 20.5 C 21.238281 19.628906 22.53125 16.0625 22.53125 16.0625 C 19.179688 17.136719 18.175781 14.863281 18.34375 13.34375 C 16.746094 13.652344 13.96875 12.953125 13.96875 10 L 9.3125 10 C 8.78125 10 8.386719 9.566406 8.09375 8.96875 L 11.96875 8.96875 C 13.0625 8.988281 13.953125 8.125 13.96875 7.03125 C 13.988281 5.9375 13.125 5.046875 12.03125 5.03125 L 7 5.03125 C 6.925781 5.03125 6.851563 5.054688 6.78125 5.0625 C 6.769531 5.058594 6.761719 5.03125 6.75 5.03125 Z M 23 7.71875 C 22.445313 7.78125 21.933594 8.09375 21.65625 8.625 L 19.75 12.3125 C 19.308594 13.164063 19.617188 14.214844 20.46875 14.65625 C 21.324219 15.097656 22.371094 14.761719 22.8125 13.90625 L 24.75 10.25 C 25.191406 9.398438 24.851563 8.347656 24 7.90625 C 23.679688 7.738281 23.332031 7.679688 23 7.71875 Z"/></svg>