<svg fill="#1A1A1A" xmlns="http://www.w3.org/2000/svg"  viewBox="0 0 24 24" width="384px" height="384px"><path d="M22 7c-.552 0-1 .448-1 1v6c0 .006.003.01.003.016l-2.66 2.712c-.195.195-.512.195-.707 0-.195-.195-.195-.512 0-.707l1.778-1.846c.781-.781.781-2.047 0-2.828l-4.242 4.411c-.75.75-1.172 1.767-1.171 2.828L14 21h5v-1.686l3.415-3.414C22.789 15.525 23 15.016 23 14.485V8C23 7.448 22.552 7 22 7zM2 7c.552 0 1 .448 1 1v6c0 .006-.003.01-.003.016l2.66 2.712c.195.195.512.195.707 0s.195-.512 0-.707l-1.778-1.846c-.781-.781-.781-2.047 0-2.828l4.242 4.411c.75.75 1.172 1.767 1.171 2.828L10 21H5v-1.686L1.585 15.9C1.211 15.525 1 15.016 1 14.485V8C1 7.448 1.448 7 2 7zM12 1.89L5 5.22v3.67l2 2.08V7.542l4 2.2V15h1 1V9.741l4-2.2v3.429l2-2.08V5.22L12 1.89zM15.807 5.915L12 8.009 8.193 5.915 12 4.11 15.807 5.915z"/></svg>