<svg fill="#1A1A1A" xmlns="http://www.w3.org/2000/svg"  viewBox="0 0 24 24" width="384px" height="384px"><path d="M 11.992188 1.9941406 C 9.2267071 1.9941406 6.7866954 3.5852334 5.3515625 5.9941406 L 4.96875 5.9941406 C 4.05775 5.9941406 3.2837656 5.4219531 3.0097656 4.6269531 C 2.8747656 4.2339531 2.4563437 3.9941406 2.0273438 3.9941406 L 2.0234375 3.9941406 C 1.3474375 3.9941406 0.83778125 4.6338594 1.0507812 5.2558594 C 1.5468378 6.7004196 2.8732002 7.771288 4.4785156 7.9570312 C 4.1757605 8.9047916 4.0019531 9.9208408 4.0019531 10.984375 L 4.0019531 14.994141 C 4.0019531 18.853141 6.7936094 21.994141 10.224609 21.994141 L 13.779297 21.994141 C 17.210297 21.994141 20.001953 18.853141 20.001953 14.994141 L 20.001953 10.984375 C 20.001739 9.9207682 19.82854 8.904948 19.525391 7.9570312 C 21.129842 7.7706481 22.455313 6.6998434 22.951172 5.2558594 C 23.164172 4.6338594 22.654516 3.9941406 21.978516 3.9941406 L 21.974609 3.9941406 C 21.546609 3.9941406 21.128187 4.2329531 20.992188 4.6269531 C 20.718188 5.4219531 19.944203 5.9941406 19.033203 5.9941406 L 18.652344 5.9941406 C 17.215691 3.5851873 14.768966 1.9941406 11.992188 1.9941406 z M 7 8.9941406 L 11 9.9941406 C 11 11.099141 10.105 11.994141 9 11.994141 C 7 11.994141 6.891 9.2411406 7 8.9941406 z M 17 8.9941406 C 17.109 9.2411406 17 11.994141 15 11.994141 C 13.895 11.994141 13 11.099141 13 9.9941406 L 17 8.9941406 z M 7.0019531 13.994141 L 9.0019531 13.994141 L 10.001953 15.994141 L 11.001953 13.994141 L 13.001953 13.994141 L 14.001953 15.994141 L 15.001953 13.994141 L 17.001953 13.994141 C 17.001953 16.203141 15.001953 17.994141 12.001953 17.994141 C 9.0019531 17.994141 7.0019531 16.203141 7.0019531 13.994141 z"/></svg>